<svg width="23" height="23" viewBox="0 0 23 23" fill="none" xmlns="http://www.w3.org/2000/svg">
<path d="M11.5 6.8125C10.5729 6.8125 9.66662 7.08742 8.89576 7.60249C8.12491 8.11756 7.5241 8.84964 7.16931 9.70617C6.81453 10.5627 6.7217 11.5052 6.90257 12.4145C7.08344 13.3238 7.52988 14.159 8.18544 14.8146C8.841 15.4701 9.67623 15.9166 10.5855 16.0974C11.4948 16.2783 12.4373 16.1855 13.2938 15.8307C14.1504 15.4759 14.8824 14.8751 15.3975 14.1042C15.9126 13.3334 16.1875 12.4271 16.1875 11.5C16.1862 10.2572 15.6919 9.06566 14.8131 8.18686C13.9343 7.30807 12.7428 6.81379 11.5 6.8125ZM11.5 13.8438C11.0365 13.8438 10.5833 13.7063 10.1979 13.4488C9.81245 13.1912 9.51205 12.8252 9.33466 12.3969C9.15726 11.9686 9.11085 11.4974 9.20128 11.0428C9.29172 10.5881 9.51494 10.1705 9.84272 9.84272C10.1705 9.51494 10.5881 9.29172 11.0428 9.20128C11.4974 9.11085 11.9686 9.15726 12.3969 9.33466C12.8252 9.51205 13.1912 9.81245 13.4488 10.1979C13.7063 10.5833 13.8438 11.0365 13.8438 11.5C13.8438 12.1216 13.5968 12.7177 13.1573 13.1573C12.7177 13.5968 12.1216 13.8438 11.5 13.8438ZM16.1875 0.953125H6.8125C5.25905 0.954934 3.76975 1.57284 2.67129 2.67129C1.57284 3.76975 0.954934 5.25905 0.953125 6.8125V16.1875C0.954934 17.7409 1.57284 19.2303 2.67129 20.3287C3.76975 21.4272 5.25905 22.0451 6.8125 22.0469H16.1875C17.7409 22.0451 19.2303 21.4272 20.3287 20.3287C21.4272 19.2303 22.0451 17.7409 22.0469 16.1875V6.8125C22.0451 5.25905 21.4272 3.76975 20.3287 2.67129C19.2303 1.57284 17.7409 0.954934 16.1875 0.953125ZM19.7031 16.1875C19.7031 17.1199 19.3327 18.0141 18.6734 18.6734C18.0141 19.3327 17.1199 19.7031 16.1875 19.7031H6.8125C5.8801 19.7031 4.98589 19.3327 4.32658 18.6734C3.66727 18.0141 3.29688 17.1199 3.29688 16.1875V6.8125C3.29688 5.8801 3.66727 4.98589 4.32658 4.32658C4.98589 3.66727 5.8801 3.29688 6.8125 3.29688H16.1875C17.1199 3.29688 18.0141 3.66727 18.6734 4.32658C19.3327 4.98589 19.7031 5.8801 19.7031 6.8125V16.1875ZM18.1406 6.42188C18.1406 6.73091 18.049 7.033 17.8773 7.28995C17.7056 7.54691 17.4616 7.74718 17.1761 7.86544C16.8906 7.9837 16.5764 8.01464 16.2733 7.95435C15.9702 7.89406 15.6918 7.74525 15.4733 7.52673C15.2548 7.30821 15.1059 7.0298 15.0456 6.7267C14.9854 6.42361 15.0163 6.10944 15.1346 5.82393C15.2528 5.53842 15.4531 5.29439 15.71 5.1227C15.967 4.95101 16.2691 4.85938 16.5781 4.85938C16.9925 4.85938 17.39 5.024 17.683 5.31702C17.976 5.61005 18.1406 6.00747 18.1406 6.42188Z" fill="#32342F"/>
</svg>
