<svg width="21" height="21" viewBox="0 0 21 21" fill="none" xmlns="http://www.w3.org/2000/svg">
<path fill-rule="evenodd" clip-rule="evenodd" d="M7.82187 7.34263H11.6906V9.26971C12.2479 8.16138 13.6771 7.16554 15.824 7.16554C19.9396 7.16554 20.9167 9.37179 20.9167 13.4197V20.9166H16.75V14.3416C16.75 12.0364 16.1927 10.7364 14.774 10.7364C12.8062 10.7364 11.9885 12.1374 11.9885 14.3405V20.9166H7.82187V7.34263ZM0.677078 20.7395H4.84374V7.16554H0.677078V20.7395ZM5.44062 2.7395C5.44077 3.08875 5.37151 3.43454 5.23686 3.75678C5.1022 4.07902 4.90484 4.37129 4.65624 4.61659C4.15249 5.11724 3.47063 5.39747 2.76041 5.39575C2.05144 5.39528 1.37115 5.11575 0.866662 4.61763C0.618965 4.37149 0.422272 4.0789 0.287853 3.75662C0.153434 3.43433 0.0839315 3.08869 0.0833282 2.7395C0.0833282 2.03429 0.364578 1.35929 0.867703 0.861377C1.37175 0.362584 2.05233 0.0829403 2.76145 0.0832522C3.47187 0.0832522 4.15312 0.363461 4.65624 0.861377C5.15833 1.35929 5.44062 2.03429 5.44062 2.7395Z" fill="#32342F"/>
</svg>
