<svg width="18" height="22" viewBox="0 0 18 22" fill="none" xmlns="http://www.w3.org/2000/svg">
<path d="M9 10.9998C9.59583 10.9998 10.1061 10.7875 10.5307 10.3628C10.9554 9.93817 11.1674 9.42828 11.1667 8.83317C11.1667 8.23734 10.9543 7.72709 10.5297 7.30242C10.105 6.87775 9.59511 6.66578 9 6.6665C8.40416 6.6665 7.89391 6.87884 7.46924 7.3035C7.04458 7.72817 6.83261 8.23806 6.83333 8.83317C6.83333 9.429 7.04566 9.93925 7.47033 10.3639C7.895 10.7886 8.40488 11.0006 9 10.9998ZM9 21.8332C6.09305 19.3596 3.92205 17.0622 2.48699 14.941C1.05194 12.8198 0.33405 10.8561 0.333328 9.04984C0.333328 6.3415 1.20469 4.18386 2.94741 2.57692C4.69013 0.969976 6.70766 0.166504 9 0.166504C11.2931 0.166504 13.3109 0.969976 15.0537 2.57692C16.7964 4.18386 17.6674 6.3415 17.6667 9.04984C17.6667 10.8554 16.9488 12.8191 15.513 14.941C14.0772 17.0629 11.9062 19.3603 9 21.8332Z" fill="#C0BCBC"/>
</svg>
