<svg width="16" height="28" viewBox="0 0 16 28" fill="none" xmlns="http://www.w3.org/2000/svg">
<path d="M9.66667 25.2C9.66667 24.7188 9.50347 24.3068 9.17708 23.9641C8.85069 23.6214 8.45833 23.45 8 23.45C7.54167 23.45 7.14931 23.6214 6.82292 23.9641C6.49653 24.3068 6.33333 24.7188 6.33333 25.2C6.33333 25.6812 6.49653 26.0932 6.82292 26.4359C7.14931 26.7786 7.54167 26.95 8 26.95C8.45833 26.95 8.85069 26.7786 9.17708 26.4359C9.50347 26.0932 9.66667 25.6812 9.66667 25.2ZM14 21.7V6.3C14 6.11042 13.934 5.94635 13.8021 5.80781C13.6701 5.66927 13.5139 5.6 13.3333 5.6H2.66667C2.48611 5.6 2.32986 5.66927 2.19792 5.80781C2.06597 5.94635 2 6.11042 2 6.3V21.7C2 21.8896 2.06597 22.0536 2.19792 22.1922C2.32986 22.3307 2.48611 22.4 2.66667 22.4H13.3333C13.5139 22.4 13.6701 22.3307 13.8021 22.1922C13.934 22.0536 14 21.8896 14 21.7ZM10 3.15C10 2.91667 9.88889 2.8 9.66667 2.8H6.33333C6.11111 2.8 6 2.91667 6 3.15C6 3.38333 6.11111 3.5 6.33333 3.5H9.66667C9.88889 3.5 10 3.38333 10 3.15ZM16 2.8V25.2C16 25.9583 15.7361 26.6146 15.2083 27.1687C14.6806 27.7229 14.0556 28 13.3333 28H2.66667C1.94444 28 1.31944 27.7229 0.791667 27.1687C0.263889 26.6146 0 25.9583 0 25.2V2.8C0 2.04167 0.263889 1.38542 0.791667 0.83125C1.31944 0.277083 1.94444 0 2.66667 0H13.3333C14.0556 0 14.6806 0.277083 15.2083 0.83125C15.7361 1.38542 16 2.04167 16 2.8Z" fill="#AEA8A8"/>
</svg>
