<svg width="23" height="18" viewBox="0 0 23 18" fill="none" xmlns="http://www.w3.org/2000/svg">
<path d="M22.3958 2.25008C21.5937 2.61466 20.7292 2.85425 19.8333 2.96883C20.75 2.41675 21.4583 1.54175 21.7917 0.489665C20.9271 1.0105 19.9687 1.37508 18.9583 1.58341C18.1354 0.687581 16.9792 0.166748 15.6667 0.166748C13.2187 0.166748 11.2187 2.16675 11.2187 4.6355C11.2187 4.98966 11.2604 5.33342 11.3333 5.65633C7.625 5.46883 4.32291 3.68758 2.125 0.989665C1.73958 1.64591 1.52083 2.41675 1.52083 3.22925C1.52083 4.78133 2.30208 6.15633 3.51041 6.93758C2.77083 6.93758 2.08333 6.72925 1.47916 6.41675V6.448C1.47916 8.61466 3.02083 10.4272 5.0625 10.8334C4.407 11.0128 3.71885 11.0378 3.05208 10.9063C3.335 11.7943 3.8891 12.5713 4.63647 13.1281C5.38385 13.6849 6.28692 13.9935 7.21875 14.0105C5.63919 15.261 3.68124 15.9369 1.66666 15.9272C1.3125 15.9272 0.958331 15.9063 0.604164 15.8647C2.58333 17.1355 4.9375 17.8751 7.45833 17.8751C15.6667 17.8751 20.1771 11.0626 20.1771 5.15633C20.1771 4.95841 20.1771 4.77091 20.1667 4.573C21.0417 3.948 21.7917 3.15633 22.3958 2.25008Z" fill="#32342F"/>
</svg>
